<svg width="168" height="37" viewBox="0 0 168 37" fill="none" xmlns="http://www.w3.org/2000/svg">
<path d="M40.0245 11.3445C40.0245 5.78628 35.5446 1.28052 30.0183 1.28052C26.4099 1.28052 23.2482 3.20162 21.4876 6.08216C21.346 6.35241 21.1338 6.57865 20.8738 6.73647C20.6137 6.89429 20.3158 6.9777 20.0121 6.9777C19.7084 6.9777 19.4105 6.89429 19.1505 6.73647C18.8904 6.57865 18.6782 6.35241 18.5367 6.08216C16.7765 3.20162 13.6145 1.28052 10.0061 1.28052C4.47985 1.28052 0 5.78628 0 11.3445V14.6992C0 21.4085 10.0061 34.8272 20.0122 34.8272C23.9257 34.8272 28.6695 31.7633 32.5555 27.8314L26.8958 23.3766C24.2579 26.1498 21.4849 28.1178 20.0122 28.1178C16.6769 28.1178 6.67074 18.0539 6.67074 11.3445C6.67085 10.7023 6.85421 10.0737 7.19905 9.53322C7.5439 8.99275 8.03573 8.5632 8.61613 8.29558C9.19653 8.02795 9.84111 7.93351 10.4733 8.02346C11.1055 8.11341 11.6987 8.38398 12.1826 8.80302C12.2048 8.82203 12.227 8.84171 12.2493 8.86139L12.2788 8.88868C12.304 8.91209 12.3288 8.93594 12.3531 8.96024C12.3584 8.96561 12.364 8.97076 12.3691 8.97612C12.3968 9.00445 12.4245 9.03352 12.4521 9.06334C12.4623 9.07453 12.4723 9.08571 12.4823 9.09711C12.4996 9.11635 12.517 9.1358 12.5339 9.15571C12.5508 9.17561 12.5657 9.19283 12.5812 9.21184L12.5879 9.21989C12.6088 9.24561 12.6295 9.272 12.65 9.29839L12.658 9.30913C12.6749 9.33149 12.6918 9.35386 12.7082 9.37622C12.7127 9.38226 12.7171 9.3883 12.7213 9.39456C12.74 9.42073 12.7582 9.44689 12.776 9.47373L12.7818 9.48245C12.7978 9.50661 12.8134 9.53098 12.829 9.55536L12.8416 9.57594C12.8585 9.60345 12.8752 9.63095 12.8914 9.65891L13.9045 11.2721L15.2993 13.4928C15.7944 14.3027 16.4874 14.9714 17.3124 15.4354C18.1374 15.8993 19.0668 16.1428 20.012 16.1428C20.9572 16.1428 21.8866 15.8993 22.7116 15.4354C23.5366 14.9714 24.2296 14.3027 24.7247 13.4928L26.1202 11.2712L27.1326 9.65891C27.1486 9.63118 27.1653 9.60389 27.1819 9.57683C27.1864 9.56945 27.1911 9.56207 27.1957 9.55447C27.2109 9.53009 27.2264 9.50616 27.2422 9.48223L27.248 9.47328C27.2658 9.44667 27.284 9.42028 27.3027 9.39434L27.3156 9.37622C27.3325 9.35274 27.3498 9.32926 27.3674 9.30622L27.3736 9.29772C27.3939 9.27156 27.4145 9.24539 27.4354 9.21967L27.4441 9.20894C27.4586 9.19149 27.4735 9.17405 27.4886 9.15683C27.5037 9.13961 27.5228 9.11747 27.5399 9.09823C27.5511 9.08571 27.5622 9.07341 27.5733 9.06111C27.5982 9.03427 27.6235 9.00743 27.6493 8.98127L27.6843 8.94683C27.704 8.92737 27.7238 8.90813 27.7441 8.88912C27.7563 8.8775 27.7687 8.86676 27.7812 8.85513C27.8014 8.83657 27.8221 8.81823 27.843 8.80011C28.327 8.38126 28.9205 8.11095 29.5527 8.02129C30.185 7.93164 30.8296 8.02641 31.4099 8.29434C31.9902 8.56228 32.4818 8.99212 32.8264 9.53281C33.171 10.0735 33.354 10.7023 33.3537 11.3445C33.3537 12.8505 32.8447 14.5303 32.0196 16.2289L36.4069 15.4504C36.6275 15.4073 36.8546 15.4094 37.0744 15.4568C37.2941 15.5041 37.5021 15.5956 37.6859 15.7258C37.8696 15.8561 38.0252 16.0223 38.1435 16.2145C38.2617 16.4068 38.3401 16.6211 38.3739 16.8446C38.3863 16.9277 38.3926 17.0117 38.3926 17.0958C38.3926 17.1213 38.3926 17.1467 38.3908 17.1722L38.5242 19.7855C39.4721 17.913 40.0245 16.1493 40.0245 14.6992V11.3445Z" fill="url(#paint0_linear_135_51608)"/>
<path d="M36.6784 27.4594L36.2855 19.777C36.2866 19.7517 36.2875 19.7262 36.2875 19.7005C36.2875 19.6165 36.2812 19.5325 36.2688 19.4494C36.2091 19.0528 36.01 18.6908 35.7078 18.4292C35.4055 18.1675 35.02 18.0235 34.6211 18.0232C34.5143 18.0233 34.4078 18.0337 34.3029 18.0541L26.4828 19.4404C26.1618 19.4852 25.8606 19.6231 25.6162 19.8373C25.3719 20.0515 25.1948 20.3326 25.1068 20.6464C25.0188 20.9602 25.0236 21.2929 25.1207 21.604C25.2177 21.9151 25.4028 22.1909 25.6532 22.3979L25.6672 22.4089C25.6832 22.4221 25.6992 22.4348 25.7159 22.4473L26.8944 23.3761C26.142 24.1705 25.3472 24.9231 24.5134 25.6305C22.1958 27.6389 19.3742 28.9683 16.3565 29.4735C13.3388 29.9788 10.2411 29.6404 7.40161 28.4953C10.996 32.1034 15.5041 34.8272 20.0122 34.8272C22.0601 34.8272 24.3348 33.9885 26.594 32.6254C28.6535 31.3837 30.7007 29.7064 32.5532 27.8318L33.9225 28.9098C34.1755 29.1327 34.4896 29.2734 34.8235 29.3134C35.1575 29.3534 35.4957 29.2909 35.7936 29.134C36.0916 28.9771 36.3354 28.7332 36.493 28.4344C36.6506 28.1356 36.7146 27.7957 36.6766 27.4596L36.6784 27.4594Z" fill="url(#paint1_linear_135_51608)"/>
<path d="M30.0183 1.28052C29.9869 1.28052 29.9556 1.28052 29.9243 1.28052C29.8734 1.28052 29.8227 1.28164 29.772 1.28275H29.7653L29.6813 1.28521C29.6297 1.287 29.5783 1.28902 29.5269 1.2917C29.4756 1.29438 29.4186 1.29729 29.3646 1.30087C29.3462 1.30199 29.3279 1.30311 29.3097 1.30467C29.2739 1.30691 29.2385 1.30959 29.2027 1.31272C29.1881 1.31272 29.1736 1.31496 29.1583 1.31608L29.0978 1.32167C29.0755 1.32346 29.0533 1.32569 29.0311 1.32793C29.0088 1.33017 28.9866 1.3324 28.9657 1.33464H28.9588L28.881 1.34314L28.8283 1.3494C28.8116 1.35119 28.7949 1.35343 28.7785 1.35544L28.7562 1.35835C28.734 1.36103 28.7118 1.36416 28.6895 1.36729L28.6319 1.3749L28.5732 1.38339C28.5557 1.38585 28.5379 1.38831 28.5203 1.39122L28.465 1.39972L28.4125 1.40799L28.4014 1.40978L28.328 1.42231L28.2613 1.43349L28.1946 1.44557L28.1405 1.45563L28.0909 1.46525L28.0133 1.4809L27.936 1.49701L27.8599 1.51356C27.8154 1.52362 27.7688 1.53413 27.7234 1.54464L27.6642 1.55873C27.5531 1.58602 27.4419 1.61464 27.332 1.64551L27.2653 1.66474L27.2482 1.66966C27.1988 1.68382 27.1496 1.69873 27.1006 1.71439C27.0666 1.72468 27.0328 1.73519 26.9992 1.74592C26.9562 1.75949 26.9134 1.77343 26.8709 1.78774C26.7695 1.82144 26.6687 1.85677 26.5687 1.89375C26.503 1.9179 26.4377 1.94288 26.3728 1.96867C26.3079 1.99447 26.2434 2.02056 26.1796 2.04695L26.1237 2.07043C26.0993 2.08072 26.0748 2.09123 26.0506 2.10196C26.0099 2.11963 25.9692 2.13752 25.929 2.15586C25.9067 2.1657 25.8845 2.17577 25.8623 2.18605C25.84 2.19634 25.8156 2.20842 25.7922 2.21871C25.7733 2.2272 25.7546 2.23615 25.7362 2.2451C25.6597 2.28162 25.5837 2.3189 25.5083 2.35692C25.4874 2.36765 25.4665 2.37928 25.4458 2.38912C25.3988 2.41328 25.3522 2.43773 25.3061 2.46248L25.2417 2.49759L25.1798 2.53293C25.1558 2.54612 25.1318 2.55976 25.108 2.57341C25.0842 2.58705 25.0635 2.59845 25.0413 2.61143C24.979 2.64721 24.9172 2.68381 24.8559 2.72124L24.8158 2.74561L24.7771 2.76954C24.7118 2.8101 24.6469 2.85132 24.5826 2.89322L24.5188 2.93549C24.3261 3.06296 24.1388 3.19663 23.9571 3.33648C23.9397 3.34968 23.9224 3.36287 23.9053 3.37629C23.8353 3.43071 23.7662 3.48595 23.698 3.54201C23.6785 3.55789 23.6591 3.57422 23.6396 3.59032C23.5646 3.65271 23.4901 3.71645 23.4172 3.78131C23.4005 3.79585 23.3841 3.81038 23.3678 3.82604L23.3109 3.87725L23.278 3.90745C23.2613 3.92243 23.2449 3.93786 23.2284 3.95217C23.151 4.02389 23.0748 4.09695 22.9996 4.17135C22.9812 4.18968 22.9625 4.20825 22.9442 4.22681C22.926 4.24537 22.9071 4.26416 22.8891 4.28272L22.8342 4.33908L22.7797 4.39611C22.7437 4.43413 22.708 4.47245 22.6725 4.51106L22.6245 4.56362C22.6158 4.57324 22.6069 4.58263 22.5985 4.59224L22.5578 4.63697C22.5433 4.65308 22.5289 4.6694 22.5149 4.6855L22.4873 4.71704C22.4604 4.7479 22.4333 4.77921 22.4068 4.81052C22.3405 4.8885 22.2755 4.96752 22.2118 5.04759C22.1951 5.06794 22.1789 5.08851 22.1629 5.10931C22.1157 5.16902 22.0697 5.22941 22.0243 5.28979C21.997 5.32625 21.9701 5.3627 21.943 5.3996C21.8947 5.46669 21.8467 5.53379 21.7998 5.60088C21.7851 5.62325 21.7706 5.64315 21.7564 5.6644C21.713 5.72821 21.6704 5.79232 21.6288 5.85673V5.85785C21.6052 5.8943 21.5816 5.93098 21.5585 5.96811C21.5354 6.00523 21.5116 6.0428 21.4885 6.07993C21.4798 6.0967 21.4709 6.11325 21.4616 6.12935C21.443 6.1623 21.4235 6.19428 21.4029 6.2253C21.3929 6.2405 21.3824 6.25571 21.3717 6.27003C21.3718 6.27047 21.3718 6.27093 21.3717 6.27137C21.3615 6.28568 21.351 6.29999 21.3406 6.31386L21.3373 6.31811C21.3284 6.32996 21.3193 6.34182 21.3097 6.35322C21.3078 6.3561 21.3056 6.35879 21.3032 6.36127C21.293 6.37402 21.2826 6.38654 21.2717 6.39884C21.1155 6.57926 20.9227 6.72399 20.7063 6.8233C20.4899 6.92262 20.2549 6.97424 20.0171 6.97468C19.7792 6.97513 19.544 6.92439 19.3273 6.82588C19.1105 6.72738 18.9172 6.58337 18.7604 6.40354C18.7497 6.39146 18.7381 6.37894 18.729 6.36664C18.7199 6.35434 18.7128 6.34674 18.705 6.33645C18.7028 6.33354 18.7003 6.33086 18.6983 6.32795C18.693 6.32102 18.6874 6.31408 18.6823 6.30693C18.6772 6.29977 18.669 6.28926 18.6625 6.28031C18.6561 6.27137 18.6543 6.26868 18.6505 6.26287C18.6467 6.25705 18.6383 6.24587 18.6329 6.23715C18.6292 6.23201 18.6258 6.22664 18.6223 6.22149C18.6138 6.20852 18.6056 6.19578 18.5976 6.1828C18.5896 6.16983 18.5782 6.15038 18.5687 6.13405C18.5625 6.12331 18.5565 6.11169 18.5509 6.10162C18.5491 6.09871 18.5476 6.09558 18.5458 6.09245C18.544 6.08932 18.5413 6.0844 18.5393 6.08038C18.5118 6.03565 18.4839 5.99092 18.4557 5.94619L18.3995 5.85785V5.85673C18.3759 5.82005 18.3519 5.78382 18.3276 5.74737C18.313 5.725 18.2983 5.70264 18.2832 5.68184C18.2681 5.66104 18.2547 5.63957 18.24 5.61833C18.1652 5.50963 18.0881 5.40229 18.0088 5.29628L17.9614 5.23343C17.9296 5.19161 17.8976 5.15024 17.8649 5.10886C17.8486 5.08814 17.8324 5.06756 17.8162 5.04714C17.7682 4.9875 17.7196 4.92786 17.6706 4.86822L17.6161 4.80359C17.5992 4.78376 17.5821 4.76385 17.5647 4.74388C17.5476 4.7242 17.5305 4.70429 17.5131 4.68461C17.4991 4.66851 17.4849 4.65218 17.4705 4.63608C17.456 4.61998 17.4433 4.60566 17.4298 4.59135L17.4035 4.56272C17.3877 4.54506 17.3715 4.52761 17.3555 4.51017C17.3395 4.49272 17.3199 4.47148 17.3021 4.45224C17.2663 4.414 17.2301 4.37598 17.1938 4.33818C17.1756 4.31962 17.1574 4.30061 17.1391 4.28183L17.084 4.22592L17.0284 4.17045L16.9722 4.11521C16.9155 4.05975 16.8576 4.00518 16.7996 3.95128C16.7809 3.93384 16.7625 3.91662 16.7436 3.89939C16.705 3.86406 16.6661 3.82902 16.6268 3.79428C16.6079 3.77728 16.5886 3.76051 16.5695 3.74351L16.5085 3.69096C16.491 3.67575 16.4736 3.66077 16.4561 3.64623C16.4338 3.627 16.4116 3.60799 16.3894 3.58942L16.3289 3.53933C16.0664 3.32425 15.7932 3.12272 15.5104 2.93549L15.4461 2.89344C15.3818 2.85169 15.317 2.81047 15.2518 2.76977L15.2093 2.74606C15.1962 2.73778 15.1828 2.72973 15.1693 2.72168C15.1079 2.68441 15.0461 2.64781 14.9838 2.61187C14.9616 2.5989 14.9394 2.58638 14.9171 2.57385C14.8949 2.56133 14.8693 2.54657 14.8453 2.53337L14.7826 2.49871L14.7181 2.4636C14.6154 2.40843 14.5116 2.35498 14.4068 2.30324C14.3832 2.29139 14.3594 2.28088 14.3357 2.26836C14.3119 2.25583 14.2943 2.24823 14.2734 2.23861C14.1985 2.2026 14.1226 2.16794 14.0466 2.13417C14.0228 2.12366 13.9988 2.1118 13.9748 2.10263C13.9507 2.09347 13.9258 2.08139 13.9014 2.0711C13.8769 2.06081 13.8525 2.0503 13.828 2.04024C13.8035 2.03017 13.7789 2.01989 13.7542 2.01005C13.7295 2.00021 13.7097 1.99238 13.6888 1.98366L13.6443 1.96644L13.5901 1.94541C13.5661 1.9358 13.5418 1.92663 13.5174 1.91768C13.3973 1.87295 13.276 1.82986 13.1534 1.78841C13.104 1.77209 13.0549 1.75599 13.0051 1.74033C12.9271 1.71573 12.8485 1.69202 12.7694 1.66921C12.7436 1.66161 12.7178 1.65415 12.692 1.64685C12.5827 1.61613 12.4728 1.58751 12.3622 1.56097L12.3002 1.54598C12.2532 1.5348 12.2059 1.52407 12.1583 1.51378C12.1361 1.50841 12.1118 1.50349 12.0885 1.49835L12.0218 1.48426C11.9791 1.47531 11.936 1.46681 11.8928 1.45876L11.8241 1.44557C11.7828 1.43819 11.7412 1.43058 11.6996 1.4232L11.6329 1.41202L11.5662 1.40129L11.4995 1.39122L11.4459 1.38317L11.3985 1.37646L11.3365 1.36998L11.2678 1.36081L11.2455 1.35812L11.1955 1.35208L11.1428 1.34582L11.065 1.33732H11.0583C11.0361 1.33509 11.0138 1.33263 10.9929 1.33061C10.972 1.3286 10.9485 1.32614 10.9262 1.32435L10.866 1.31876L10.8215 1.31541C10.785 1.31228 10.7486 1.30959 10.7121 1.30713L10.6598 1.30288C10.606 1.2993 10.5518 1.29617 10.4975 1.29371C10.4433 1.29125 10.3948 1.28902 10.3432 1.28723L10.2592 1.28365H10.2525C10.202 1.28365 10.1513 1.28164 10.1002 1.28141C10.0689 1.28082 10.0375 1.28052 10.0061 1.28052C4.47985 1.28052 5.30961e-07 5.78651 5.30961e-07 11.3445V14.126C-0.000182806 13.6431 0.0471131 13.1613 0.141198 12.6877C0.141198 12.6844 0.142754 12.6808 0.143644 12.6774C0.154095 12.6249 0.16588 12.5728 0.176775 12.5209C0.180333 12.505 0.184113 12.4891 0.187893 12.4733C0.19701 12.4339 0.206349 12.3943 0.216133 12.3549C0.22058 12.3366 0.225472 12.3183 0.230141 12.2997C0.239703 12.2633 0.249042 12.2263 0.259048 12.1901C0.264384 12.1709 0.269721 12.1521 0.27528 12.1331C0.285286 12.0971 0.295514 12.0615 0.306188 12.026C0.311747 12.0072 0.317528 11.9884 0.323309 11.9696C0.334427 11.934 0.345545 11.8985 0.357108 11.8629C0.362889 11.8448 0.368893 11.8267 0.374896 11.8088C0.386904 11.7724 0.399578 11.7361 0.41203 11.7001C0.418034 11.6833 0.424037 11.6666 0.429819 11.6496C0.443605 11.6118 0.457614 11.5742 0.471844 11.5366C0.477181 11.5219 0.48274 11.5071 0.488299 11.4919C0.504086 11.4507 0.520541 11.4098 0.536995 11.3693C1.61743 8.71356 4.21169 6.84278 7.24043 6.84278C8.69827 6.84028 10.1226 7.28267 11.3251 8.11151C11.3474 8.12672 11.3696 8.14171 11.3907 8.15624C11.4119 8.17078 11.4377 8.18934 11.4608 8.20634C11.4839 8.22334 11.5053 8.23877 11.5275 8.25532C11.5497 8.27187 11.572 8.28842 11.5942 8.30497L11.5962 8.30631L11.66 8.35551C11.6843 8.37452 11.7087 8.39353 11.7329 8.41321C11.7521 8.42797 11.7708 8.44318 11.7897 8.45794C11.8045 8.46979 11.819 8.48187 11.8341 8.49395C11.8786 8.53062 11.9231 8.56797 11.9664 8.60577C11.982 8.61896 11.9976 8.63261 12.0129 8.64647C12.0282 8.66034 12.0467 8.67622 12.0634 8.6912L12.113 8.73593C12.1299 8.75114 12.1463 8.76635 12.1625 8.78066L12.1648 8.78289C12.2157 8.82606 12.2648 8.87101 12.3131 8.91708C12.33 8.93341 12.3469 8.95018 12.3636 8.96673L12.3753 8.97881C12.4016 9.0052 12.4272 9.03226 12.4523 9.05954C12.4625 9.07072 12.4723 9.08191 12.4825 9.09331C12.4999 9.11277 12.517 9.132 12.5341 9.15168C12.5512 9.17137 12.5659 9.18926 12.5815 9.20804L12.585 9.21207L12.5881 9.21609C12.5973 9.2275 12.6066 9.23846 12.6155 9.25009C12.6333 9.27245 12.6504 9.29482 12.6671 9.31718C12.6838 9.33955 12.704 9.36661 12.7216 9.39165L12.7471 9.42833C12.7571 9.44287 12.7671 9.45718 12.7769 9.47194C12.7867 9.4867 12.7967 9.50124 12.8058 9.51667C12.8149 9.5321 12.8214 9.54105 12.8281 9.55335C12.8328 9.56012 12.8372 9.56714 12.8412 9.57437C12.8496 9.58802 12.8579 9.60166 12.8661 9.6153C12.8743 9.62894 12.8825 9.64303 12.8908 9.6569L13.9034 11.2692L15.2982 13.4899C15.3289 13.5396 15.3601 13.589 15.3919 13.6375C15.4399 13.7105 15.4894 13.7822 15.5404 13.8527C15.5918 13.9231 15.6442 13.9925 15.6987 14.0605C15.7347 14.1052 15.7718 14.1499 15.8099 14.1946C16.3291 14.8048 16.9735 15.2946 17.6988 15.6304C18.4241 15.9663 19.2131 16.1402 20.0116 16.1402C20.81 16.1402 21.599 15.9663 22.3243 15.6304C23.0496 15.2946 23.694 14.8048 24.2132 14.1946C24.2509 14.1499 24.288 14.1052 24.3244 14.0605C24.3787 13.9925 24.4314 13.9232 24.4825 13.8527C24.5165 13.8057 24.5499 13.7582 24.5828 13.71C24.6317 13.638 24.679 13.5646 24.7247 13.4899L26.1195 11.2692L27.1324 9.656C27.1424 9.63923 27.1522 9.62246 27.1622 9.60591L27.1815 9.57393C27.19 9.56028 27.1984 9.54664 27.2073 9.533C27.2084 9.53076 27.21 9.52875 27.2113 9.52651C27.224 9.50661 27.2371 9.4867 27.2502 9.46725C27.2633 9.44779 27.278 9.4261 27.2922 9.40597C27.3065 9.38584 27.3176 9.37018 27.3305 9.35252L27.3407 9.33865C27.3534 9.32143 27.3665 9.30399 27.3798 9.28677C27.3932 9.26955 27.4061 9.253 27.4194 9.23622C27.4285 9.22504 27.4377 9.21386 27.4468 9.2029C27.4601 9.18635 27.4739 9.17025 27.4877 9.15437C27.5048 9.13446 27.5219 9.11501 27.5393 9.09555C27.5495 9.08437 27.5593 9.07319 27.5697 9.06178C27.6064 9.02152 27.6445 8.98239 27.6834 8.94437C27.7032 8.92513 27.7229 8.90545 27.7432 8.88667C27.7554 8.87504 27.7679 8.8643 27.7803 8.85245C27.8008 8.83411 27.8212 8.81577 27.8421 8.79766C27.8477 8.79251 27.8535 8.78737 27.8593 8.78267C29.1967 7.53116 30.9564 6.8366 32.7831 6.8392C35.8121 6.8392 38.4061 8.70999 39.4866 11.3658C39.5033 11.4063 39.5196 11.4472 39.5353 11.4883C39.5411 11.5026 39.5464 11.5174 39.552 11.5331C39.566 11.5706 39.58 11.6083 39.5938 11.646C39.5998 11.663 39.6055 11.6798 39.6115 11.6965C39.6241 11.7326 39.6366 11.7688 39.6489 11.8052C39.6549 11.8231 39.6607 11.8412 39.6665 11.8593C39.6783 11.8949 39.6887 11.9305 39.7005 11.966C39.706 11.9848 39.7118 12.0036 39.7176 12.0224C39.7283 12.0579 39.7385 12.0935 39.7485 12.1295C39.7539 12.1485 39.7594 12.1673 39.7645 12.1865C39.7745 12.2228 39.7839 12.2597 39.7937 12.2961C39.7981 12.3147 39.803 12.333 39.8077 12.3514C39.8174 12.3907 39.8266 12.4303 39.8357 12.4697C39.8395 12.4856 39.8432 12.5014 39.8468 12.5173C39.8586 12.5694 39.869 12.6215 39.8802 12.6739C39.8802 12.6772 39.8817 12.6808 39.8824 12.6841C39.9765 13.1577 40.0238 13.6395 40.0236 14.1224V11.3445C40.0245 5.78651 35.5446 1.28052 30.0183 1.28052Z" fill="url(#paint2_linear_135_51608)"/>
<path d="M28.7013 8.11062C28.4053 8.31425 28.1246 8.53955 27.8615 8.78468C27.5705 9.03262 27.3239 9.32873 27.1321 9.66025L26.1197 11.2725L24.7262 13.4942C24.2312 14.304 23.5381 14.9728 22.7131 15.4367C21.8882 15.9006 20.9587 16.1442 20.0136 16.1442C19.0684 16.1442 18.139 15.9006 17.314 15.4367C16.489 14.9728 15.7959 14.304 15.3009 13.4942L13.9061 11.2734L12.893 9.66025C12.7017 9.32975 12.4559 9.03441 12.1661 8.78692C10.8287 7.53534 9.06898 6.84076 7.2422 6.84345C4.21346 6.84345 1.61921 8.71424 0.538774 11.37C0.522319 11.4105 0.505865 11.4514 0.490077 11.4926C0.484518 11.5069 0.478959 11.5216 0.473623 11.5373C0.458799 11.5749 0.44479 11.6125 0.431597 11.6502C0.425816 11.6672 0.419812 11.684 0.413808 11.7008C0.401356 11.7368 0.388682 11.773 0.376675 11.8095C0.370671 11.8274 0.364667 11.8455 0.358886 11.8636C0.347101 11.8992 0.33665 11.9347 0.325088 11.9703C0.319306 11.9891 0.313525 12.0078 0.307966 12.0266C0.297293 12.0622 0.287064 12.0978 0.277058 12.1338C0.271499 12.1528 0.266163 12.1716 0.260826 12.1908C0.25082 12.227 0.241481 12.2639 0.23192 12.3004C0.22725 12.3189 0.222358 12.3373 0.217911 12.3556C0.208127 12.395 0.198788 12.4346 0.189671 12.4739C0.185891 12.4898 0.182111 12.5057 0.178554 12.5216C0.166991 12.5737 0.156318 12.6258 0.145422 12.6781C0.145422 12.6815 0.143643 12.685 0.142976 12.6884C0.0483379 13.1617 0.000446309 13.6432 0 14.126L0 11.3445C0 5.78651 4.47985 1.28052 10.0061 1.28052C13.5194 1.28052 16.6102 3.10233 18.3959 5.85852C18.4438 5.93307 18.4907 6.00762 18.5367 6.08216C18.5387 6.08619 18.5409 6.09022 18.5431 6.09424C18.6026 6.20583 18.6746 6.3102 18.7577 6.40533C20.0749 8.21372 22.202 9.38785 24.6017 9.38785C26.0655 9.39069 27.4954 8.94519 28.7013 8.11062Z" fill="url(#paint3_linear_135_51608)"/>
<path d="M40.0245 11.3445C40.0245 5.78628 35.5446 1.28052 30.0183 1.28052C26.4099 1.28052 23.2482 3.20162 21.4876 6.08216C21.346 6.35241 21.1338 6.57865 20.8738 6.73647C20.6137 6.89429 20.3158 6.9777 20.0121 6.9777C19.7084 6.9777 19.4105 6.89429 19.1505 6.73647C18.8904 6.57865 18.6782 6.35241 18.5367 6.08216C16.7765 3.20162 13.6145 1.28052 10.0061 1.28052C4.47985 1.28052 0 5.78628 0 11.3445V14.6992C0 21.4085 10.0061 34.8272 20.0122 34.8272C23.9257 34.8272 28.6695 31.7633 32.5555 27.8314L26.8958 23.3766C24.2579 26.1498 21.4849 28.1178 20.0122 28.1178C16.6769 28.1178 6.67074 18.0539 6.67074 11.3445C6.67085 10.7023 6.85421 10.0737 7.19905 9.53322C7.5439 8.99275 8.03573 8.5632 8.61613 8.29558C9.19653 8.02795 9.84111 7.93351 10.4733 8.02346C11.1055 8.11341 11.6987 8.38398 12.1826 8.80302C12.2048 8.82203 12.227 8.84171 12.2493 8.86139L12.2788 8.88868C12.304 8.91209 12.3288 8.93594 12.3531 8.96024C12.3584 8.96561 12.364 8.97076 12.3691 8.97612C12.3968 9.00445 12.4245 9.03352 12.4521 9.06334C12.4623 9.07453 12.4723 9.08571 12.4823 9.09711C12.4996 9.11635 12.517 9.1358 12.5339 9.15571C12.5508 9.17561 12.5657 9.19283 12.5812 9.21184L12.5879 9.21989C12.6088 9.24561 12.6295 9.272 12.65 9.29839L12.658 9.30913C12.6749 9.33149 12.6918 9.35386 12.7082 9.37622C12.7127 9.38226 12.7171 9.3883 12.7213 9.39456C12.74 9.42073 12.7582 9.44689 12.776 9.47373L12.7818 9.48245C12.7978 9.50661 12.8134 9.53098 12.829 9.55536L12.8416 9.57594C12.8585 9.60345 12.8752 9.63095 12.8914 9.65891L13.9045 11.2721L15.2993 13.4928C15.7944 14.3027 16.4874 14.9714 17.3124 15.4354C18.1374 15.8993 19.0668 16.1428 20.012 16.1428C20.9572 16.1428 21.8866 15.8993 22.7116 15.4354C23.5366 14.9714 24.2296 14.3027 24.7247 13.4928L26.1202 11.2712L27.1326 9.65891C27.1486 9.63118 27.1653 9.60389 27.1819 9.57683C27.1864 9.56945 27.1911 9.56207 27.1957 9.55447C27.2109 9.53009 27.2264 9.50616 27.2422 9.48223L27.248 9.47328C27.2658 9.44667 27.284 9.42028 27.3027 9.39434L27.3156 9.37622C27.3325 9.35274 27.3498 9.32926 27.3674 9.30622L27.3736 9.29772C27.3939 9.27156 27.4145 9.24539 27.4354 9.21967L27.4441 9.20894C27.4586 9.19149 27.4735 9.17405 27.4886 9.15683C27.5037 9.13961 27.5228 9.11747 27.5399 9.09823C27.5511 9.08571 27.5622 9.07341 27.5733 9.06111C27.5982 9.03427 27.6235 9.00743 27.6493 8.98127L27.6843 8.94683C27.704 8.92737 27.7238 8.90813 27.7441 8.88912C27.7563 8.8775 27.7687 8.86676 27.7812 8.85513C27.8014 8.83657 27.8221 8.81823 27.843 8.80011C28.327 8.38126 28.9205 8.11095 29.5527 8.02129C30.185 7.93164 30.8296 8.02641 31.4099 8.29434C31.9902 8.56228 32.4818 8.99212 32.8264 9.53281C33.171 10.0735 33.354 10.7023 33.3537 11.3445C33.3537 12.8505 32.8447 14.5303 32.0196 16.2289L36.4069 15.4504C36.6275 15.4073 36.8546 15.4094 37.0744 15.4568C37.2941 15.5041 37.5021 15.5956 37.6859 15.7258C37.8696 15.8561 38.0252 16.0223 38.1435 16.2145C38.2617 16.4068 38.3401 16.6211 38.3739 16.8446C38.3863 16.9277 38.3926 17.0117 38.3926 17.0958C38.3926 17.1213 38.3926 17.1467 38.3908 17.1722L38.5242 19.7855C39.4721 17.913 40.0245 16.1493 40.0245 14.6992V11.3445Z" fill="url(#paint4_linear_135_51608)"/>
<path d="M36.6784 27.4594L36.2855 19.777C36.2866 19.7517 36.2875 19.7262 36.2875 19.7005C36.2875 19.6165 36.2812 19.5325 36.2688 19.4494C36.2091 19.0528 36.01 18.6908 35.7078 18.4292C35.4055 18.1675 35.02 18.0235 34.6211 18.0232C34.5143 18.0233 34.4078 18.0337 34.3029 18.0541L26.4828 19.4404C26.1618 19.4852 25.8606 19.6231 25.6162 19.8373C25.3719 20.0515 25.1948 20.3326 25.1068 20.6464C25.0188 20.9602 25.0236 21.2929 25.1207 21.604C25.2177 21.9151 25.4028 22.1909 25.6532 22.3979L25.6672 22.4089C25.6832 22.4221 25.6992 22.4348 25.7159 22.4473L26.8944 23.3761C26.142 24.1705 25.3472 24.9231 24.5134 25.6305C22.1958 27.6389 19.3742 28.9683 16.3565 29.4735C13.3388 29.9788 10.2411 29.6404 7.40161 28.4953C10.996 32.1034 15.5041 34.8272 20.0122 34.8272C22.0601 34.8272 24.3348 33.9885 26.594 32.6254C28.6535 31.3837 30.7007 29.7064 32.5532 27.8318L33.9225 28.9098C34.1755 29.1327 34.4896 29.2734 34.8235 29.3134C35.1575 29.3534 35.4957 29.2909 35.7936 29.134C36.0916 28.9771 36.3354 28.7332 36.493 28.4344C36.6506 28.1356 36.7146 27.7957 36.6766 27.4596L36.6784 27.4594Z" fill="url(#paint5_linear_135_51608)"/>
<path d="M30.0183 1.28052C29.9869 1.28052 29.9556 1.28052 29.9243 1.28052C29.8734 1.28052 29.8227 1.28164 29.772 1.28275H29.7653L29.6813 1.28521C29.6297 1.287 29.5783 1.28902 29.5269 1.2917C29.4756 1.29438 29.4186 1.29729 29.3646 1.30087C29.3462 1.30199 29.3279 1.30311 29.3097 1.30467C29.2739 1.30691 29.2385 1.30959 29.2027 1.31272C29.1881 1.31272 29.1736 1.31496 29.1583 1.31608L29.0978 1.32167C29.0755 1.32346 29.0533 1.32569 29.0311 1.32793C29.0088 1.33017 28.9866 1.3324 28.9657 1.33464H28.9588L28.881 1.34314L28.8283 1.3494C28.8116 1.35119 28.7949 1.35343 28.7785 1.35544L28.7562 1.35835C28.734 1.36103 28.7118 1.36416 28.6895 1.36729L28.6319 1.3749L28.5732 1.38339C28.5557 1.38585 28.5379 1.38831 28.5203 1.39122L28.465 1.39972L28.4125 1.40799L28.4014 1.40978L28.328 1.42231L28.2613 1.43349L28.1946 1.44557L28.1405 1.45563L28.0909 1.46525L28.0133 1.4809L27.936 1.49701L27.8599 1.51356C27.8154 1.52362 27.7688 1.53413 27.7234 1.54464L27.6642 1.55873C27.5531 1.58602 27.4419 1.61464 27.332 1.64551L27.2653 1.66474L27.2482 1.66966C27.1988 1.68382 27.1496 1.69873 27.1006 1.71439C27.0666 1.72468 27.0328 1.73519 26.9992 1.74592C26.9562 1.75949 26.9134 1.77343 26.8709 1.78774C26.7695 1.82144 26.6687 1.85677 26.5687 1.89375C26.503 1.9179 26.4377 1.94288 26.3728 1.96867C26.3079 1.99447 26.2434 2.02056 26.1796 2.04695L26.1237 2.07043C26.0993 2.08072 26.0748 2.09123 26.0506 2.10196C26.0099 2.11963 25.9692 2.13752 25.929 2.15586C25.9067 2.1657 25.8845 2.17577 25.8623 2.18605C25.84 2.19634 25.8156 2.20842 25.7922 2.21871C25.7733 2.2272 25.7546 2.23615 25.7362 2.2451C25.6597 2.28162 25.5837 2.3189 25.5083 2.35692C25.4874 2.36765 25.4665 2.37928 25.4458 2.38912C25.3988 2.41328 25.3522 2.43773 25.3061 2.46248L25.2417 2.49759L25.1798 2.53293C25.1558 2.54612 25.1318 2.55976 25.108 2.57341C25.0842 2.58705 25.0635 2.59845 25.0413 2.61143C24.979 2.64721 24.9172 2.68381 24.8559 2.72124L24.8158 2.74561L24.7771 2.76954C24.7118 2.8101 24.6469 2.85132 24.5826 2.89322L24.5188 2.93549C24.3261 3.06296 24.1388 3.19663 23.9571 3.33648C23.9397 3.34968 23.9224 3.36287 23.9053 3.37629C23.8353 3.43071 23.7662 3.48595 23.698 3.54201C23.6785 3.55789 23.6591 3.57422 23.6396 3.59032C23.5646 3.65271 23.4901 3.71645 23.4172 3.78131C23.4005 3.79585 23.3841 3.81038 23.3678 3.82604L23.3109 3.87725L23.278 3.90745C23.2613 3.92243 23.2449 3.93786 23.2284 3.95217C23.151 4.02389 23.0748 4.09695 22.9996 4.17135C22.9812 4.18968 22.9625 4.20825 22.9442 4.22681C22.926 4.24537 22.9071 4.26416 22.8891 4.28272L22.8342 4.33908L22.7797 4.39611C22.7437 4.43413 22.708 4.47245 22.6725 4.51106L22.6245 4.56362C22.6158 4.57324 22.6069 4.58263 22.5985 4.59224L22.5578 4.63697C22.5433 4.65308 22.5289 4.6694 22.5149 4.6855L22.4873 4.71704C22.4604 4.7479 22.4333 4.77921 22.4068 4.81052C22.3405 4.8885 22.2755 4.96752 22.2118 5.04759C22.1951 5.06794 22.1789 5.08851 22.1629 5.10931C22.1157 5.16902 22.0697 5.22941 22.0243 5.28979C21.997 5.32625 21.9701 5.3627 21.943 5.3996C21.8947 5.46669 21.8467 5.53379 21.7998 5.60088C21.7851 5.62325 21.7706 5.64315 21.7564 5.6644C21.713 5.72821 21.6704 5.79232 21.6288 5.85673V5.85785C21.6052 5.8943 21.5816 5.93098 21.5585 5.96811C21.5354 6.00523 21.5116 6.0428 21.4885 6.07993C21.4798 6.0967 21.4709 6.11325 21.4616 6.12935C21.443 6.1623 21.4235 6.19428 21.4029 6.2253C21.3929 6.2405 21.3824 6.25571 21.3717 6.27003C21.3718 6.27047 21.3718 6.27093 21.3717 6.27137C21.3615 6.28568 21.351 6.29999 21.3406 6.31386L21.3373 6.31811C21.3284 6.32996 21.3193 6.34182 21.3097 6.35322C21.3078 6.3561 21.3056 6.35879 21.3032 6.36127C21.293 6.37402 21.2826 6.38654 21.2717 6.39884C21.1155 6.57926 20.9227 6.72399 20.7063 6.8233C20.4899 6.92262 20.2549 6.97424 20.0171 6.97468C19.7792 6.97513 19.544 6.92439 19.3273 6.82588C19.1105 6.72738 18.9172 6.58337 18.7604 6.40354C18.7497 6.39146 18.7381 6.37894 18.729 6.36664C18.7199 6.35434 18.7128 6.34674 18.705 6.33645C18.7028 6.33354 18.7003 6.33086 18.6983 6.32795C18.693 6.32102 18.6874 6.31408 18.6823 6.30693C18.6772 6.29977 18.669 6.28926 18.6625 6.28031C18.6561 6.27137 18.6543 6.26868 18.6505 6.26287C18.6467 6.25705 18.6383 6.24587 18.6329 6.23715C18.6292 6.23201 18.6258 6.22664 18.6223 6.22149C18.6138 6.20852 18.6056 6.19578 18.5976 6.1828C18.5896 6.16983 18.5782 6.15038 18.5687 6.13405C18.5625 6.12331 18.5565 6.11169 18.5509 6.10162C18.5491 6.09871 18.5476 6.09558 18.5458 6.09245C18.544 6.08932 18.5413 6.0844 18.5393 6.08038C18.5118 6.03565 18.4839 5.99092 18.4557 5.94619L18.3995 5.85785V5.85673C18.3759 5.82005 18.3519 5.78382 18.3276 5.74737C18.313 5.725 18.2983 5.70264 18.2832 5.68184C18.2681 5.66104 18.2547 5.63957 18.24 5.61833C18.1652 5.50963 18.0881 5.40229 18.0088 5.29628L17.9614 5.23343C17.9296 5.19161 17.8976 5.15024 17.8649 5.10886C17.8486 5.08814 17.8324 5.06756 17.8162 5.04714C17.7682 4.9875 17.7196 4.92786 17.6706 4.86822L17.6161 4.80359C17.5992 4.78376 17.5821 4.76385 17.5647 4.74388C17.5476 4.7242 17.5305 4.70429 17.5131 4.68461C17.4991 4.66851 17.4849 4.65218 17.4705 4.63608C17.456 4.61998 17.4433 4.60566 17.4298 4.59135L17.4035 4.56272C17.3877 4.54506 17.3715 4.52761 17.3555 4.51017C17.3395 4.49272 17.3199 4.47148 17.3021 4.45224C17.2663 4.414 17.2301 4.37598 17.1938 4.33818C17.1756 4.31962 17.1574 4.30061 17.1391 4.28183L17.084 4.22592L17.0284 4.17045L16.9722 4.11521C16.9155 4.05975 16.8576 4.00518 16.7996 3.95128C16.7809 3.93384 16.7625 3.91662 16.7436 3.89939C16.705 3.86406 16.6661 3.82902 16.6268 3.79428C16.6079 3.77728 16.5886 3.76051 16.5695 3.74351L16.5085 3.69096C16.491 3.67575 16.4736 3.66077 16.4561 3.64623C16.4338 3.627 16.4116 3.60799 16.3894 3.58942L16.3289 3.53933C16.0664 3.32425 15.7932 3.12272 15.5104 2.93549L15.4461 2.89344C15.3818 2.85169 15.317 2.81047 15.2518 2.76977L15.2093 2.74606C15.1962 2.73778 15.1828 2.72973 15.1693 2.72168C15.1079 2.68441 15.0461 2.64781 14.9838 2.61187C14.9616 2.5989 14.9394 2.58638 14.9171 2.57385C14.8949 2.56133 14.8693 2.54657 14.8453 2.53337L14.7826 2.49871L14.7181 2.4636C14.6154 2.40843 14.5116 2.35498 14.4068 2.30324C14.3832 2.29139 14.3594 2.28088 14.3357 2.26836C14.3119 2.25583 14.2943 2.24823 14.2734 2.23861C14.1985 2.2026 14.1226 2.16794 14.0466 2.13417C14.0228 2.12366 13.9988 2.1118 13.9748 2.10263C13.9507 2.09347 13.9258 2.08139 13.9014 2.0711C13.8769 2.06081 13.8525 2.0503 13.828 2.04024C13.8035 2.03017 13.7789 2.01989 13.7542 2.01005C13.7295 2.00021 13.7097 1.99238 13.6888 1.98366L13.6443 1.96644L13.5901 1.94541C13.5661 1.9358 13.5418 1.92663 13.5174 1.91768C13.3973 1.87295 13.276 1.82986 13.1534 1.78841C13.104 1.77209 13.0549 1.75599 13.0051 1.74033C12.9271 1.71573 12.8485 1.69202 12.7694 1.66921C12.7436 1.66161 12.7178 1.65415 12.692 1.64685C12.5827 1.61613 12.4728 1.58751 12.3622 1.56097L12.3002 1.54598C12.2532 1.5348 12.2059 1.52407 12.1583 1.51378C12.1361 1.50841 12.1118 1.50349 12.0885 1.49835L12.0218 1.48426C11.9791 1.47531 11.936 1.46681 11.8928 1.45876L11.8241 1.44557C11.7828 1.43819 11.7412 1.43058 11.6996 1.4232L11.6329 1.41202L11.5662 1.40129L11.4995 1.39122L11.4459 1.38317L11.3985 1.37646L11.3365 1.36998L11.2678 1.36081L11.2455 1.35812L11.1955 1.35208L11.1428 1.34582L11.065 1.33732H11.0583C11.0361 1.33509 11.0138 1.33263 10.9929 1.33061C10.972 1.3286 10.9485 1.32614 10.9262 1.32435L10.866 1.31876L10.8215 1.31541C10.785 1.31228 10.7486 1.30959 10.7121 1.30713L10.6598 1.30288C10.606 1.2993 10.5518 1.29617 10.4975 1.29371C10.4433 1.29125 10.3948 1.28902 10.3432 1.28723L10.2592 1.28365H10.2525C10.202 1.28365 10.1513 1.28164 10.1002 1.28141C10.0689 1.28082 10.0375 1.28052 10.0061 1.28052C4.47985 1.28052 5.30961e-07 5.78651 5.30961e-07 11.3445V14.126C-0.000182806 13.6431 0.0471131 13.1613 0.141198 12.6877C0.141198 12.6844 0.142754 12.6808 0.143644 12.6774C0.154095 12.6249 0.16588 12.5728 0.176775 12.5209C0.180333 12.505 0.184113 12.4891 0.187893 12.4733C0.19701 12.4339 0.206349 12.3943 0.216133 12.3549C0.22058 12.3366 0.225472 12.3183 0.230141 12.2997C0.239703 12.2633 0.249042 12.2263 0.259048 12.1901C0.264384 12.1709 0.269721 12.1521 0.27528 12.1331C0.285286 12.0971 0.295514 12.0615 0.306188 12.026C0.311747 12.0072 0.317528 11.9884 0.323309 11.9696C0.334427 11.934 0.345545 11.8985 0.357108 11.8629C0.362889 11.8448 0.368893 11.8267 0.374896 11.8088C0.386904 11.7724 0.399578 11.7361 0.41203 11.7001C0.418034 11.6833 0.424037 11.6666 0.429819 11.6496C0.443605 11.6118 0.457614 11.5742 0.471844 11.5366C0.477181 11.5219 0.48274 11.5071 0.488299 11.4919C0.504086 11.4507 0.520541 11.4098 0.536995 11.3693C1.61743 8.71356 4.21169 6.84278 7.24043 6.84278C8.69827 6.84028 10.1226 7.28267 11.3251 8.11151C11.3474 8.12672 11.3696 8.14171 11.3907 8.15624C11.4119 8.17078 11.4377 8.18934 11.4608 8.20634C11.4839 8.22334 11.5053 8.23877 11.5275 8.25532C11.5497 8.27187 11.572 8.28842 11.5942 8.30497L11.5962 8.30631L11.66 8.35551C11.6843 8.37452 11.7087 8.39353 11.7329 8.41321C11.7521 8.42797 11.7708 8.44318 11.7897 8.45794C11.8045 8.46979 11.819 8.48187 11.8341 8.49395C11.8786 8.53062 11.9231 8.56797 11.9664 8.60577C11.982 8.61896 11.9976 8.63261 12.0129 8.64647C12.0282 8.66034 12.0467 8.67622 12.0634 8.6912L12.113 8.73593C12.1299 8.75114 12.1463 8.76635 12.1625 8.78066L12.1648 8.78289C12.2157 8.82606 12.2648 8.87101 12.3131 8.91708C12.33 8.93341 12.3469 8.95018 12.3636 8.96673L12.3753 8.97881C12.4016 9.0052 12.4272 9.03226 12.4523 9.05954C12.4625 9.07072 12.4723 9.08191 12.4825 9.09331C12.4999 9.11277 12.517 9.132 12.5341 9.15168C12.5512 9.17137 12.5659 9.18926 12.5815 9.20804L12.585 9.21207L12.5881 9.21609C12.5973 9.2275 12.6066 9.23846 12.6155 9.25009C12.6333 9.27245 12.6504 9.29482 12.6671 9.31718C12.6838 9.33955 12.704 9.36661 12.7216 9.39165L12.7471 9.42833C12.7571 9.44287 12.7671 9.45718 12.7769 9.47194C12.7867 9.4867 12.7967 9.50124 12.8058 9.51667C12.8149 9.5321 12.8214 9.54105 12.8281 9.55335C12.8328 9.56012 12.8372 9.56714 12.8412 9.57437C12.8496 9.58802 12.8579 9.60166 12.8661 9.6153C12.8743 9.62894 12.8825 9.64303 12.8908 9.6569L13.9034 11.2692L15.2982 13.4899C15.3289 13.5396 15.3601 13.589 15.3919 13.6375C15.4399 13.7105 15.4894 13.7822 15.5404 13.8527C15.5918 13.9231 15.6442 13.9925 15.6987 14.0605C15.7347 14.1052 15.7718 14.1499 15.8099 14.1946C16.3291 14.8048 16.9735 15.2946 17.6988 15.6304C18.4241 15.9663 19.2131 16.1402 20.0116 16.1402C20.81 16.1402 21.599 15.9663 22.3243 15.6304C23.0496 15.2946 23.694 14.8048 24.2132 14.1946C24.2509 14.1499 24.288 14.1052 24.3244 14.0605C24.3787 13.9925 24.4314 13.9232 24.4825 13.8527C24.5165 13.8057 24.5499 13.7582 24.5828 13.71C24.6317 13.638 24.679 13.5646 24.7247 13.4899L26.1195 11.2692L27.1324 9.656C27.1424 9.63923 27.1522 9.62246 27.1622 9.60591L27.1815 9.57393C27.19 9.56028 27.1984 9.54664 27.2073 9.533C27.2084 9.53076 27.21 9.52875 27.2113 9.52651C27.224 9.50661 27.2371 9.4867 27.2502 9.46725C27.2633 9.44779 27.278 9.4261 27.2922 9.40597C27.3065 9.38584 27.3176 9.37018 27.3305 9.35252L27.3407 9.33865C27.3534 9.32143 27.3665 9.30399 27.3798 9.28677C27.3932 9.26955 27.4061 9.253 27.4194 9.23622C27.4285 9.22504 27.4377 9.21386 27.4468 9.2029C27.4601 9.18635 27.4739 9.17025 27.4877 9.15437C27.5048 9.13446 27.5219 9.11501 27.5393 9.09555C27.5495 9.08437 27.5593 9.07319 27.5697 9.06178C27.6064 9.02152 27.6445 8.98239 27.6834 8.94437C27.7032 8.92513 27.7229 8.90545 27.7432 8.88667C27.7554 8.87504 27.7679 8.8643 27.7803 8.85245C27.8008 8.83411 27.8212 8.81577 27.8421 8.79766C27.8477 8.79251 27.8535 8.78737 27.8593 8.78267C29.1967 7.53116 30.9564 6.8366 32.7831 6.8392C35.8121 6.8392 38.4061 8.70999 39.4866 11.3658C39.5033 11.4063 39.5196 11.4472 39.5353 11.4883C39.5411 11.5026 39.5464 11.5174 39.552 11.5331C39.566 11.5706 39.58 11.6083 39.5938 11.646C39.5998 11.663 39.6055 11.6798 39.6115 11.6965C39.6241 11.7326 39.6366 11.7688 39.6489 11.8052C39.6549 11.8231 39.6607 11.8412 39.6665 11.8593C39.6783 11.8949 39.6887 11.9305 39.7005 11.966C39.706 11.9848 39.7118 12.0036 39.7176 12.0224C39.7283 12.0579 39.7385 12.0935 39.7485 12.1295C39.7539 12.1485 39.7594 12.1673 39.7645 12.1865C39.7745 12.2228 39.7839 12.2597 39.7937 12.2961C39.7981 12.3147 39.803 12.333 39.8077 12.3514C39.8174 12.3907 39.8266 12.4303 39.8357 12.4697C39.8395 12.4856 39.8432 12.5014 39.8468 12.5173C39.8586 12.5694 39.869 12.6215 39.8802 12.6739C39.8802 12.6772 39.8817 12.6808 39.8824 12.6841C39.9765 13.1577 40.0238 13.6395 40.0236 14.1224V11.3445C40.0245 5.78651 35.5446 1.28052 30.0183 1.28052Z" fill="url(#paint6_linear_135_51608)"/>
<path d="M28.7013 8.11062C28.4053 8.31425 28.1246 8.53955 27.8615 8.78468C27.5705 9.03262 27.3239 9.32873 27.1321 9.66025L26.1197 11.2725L24.7262 13.4942C24.2312 14.304 23.5381 14.9728 22.7131 15.4367C21.8882 15.9006 20.9587 16.1442 20.0136 16.1442C19.0684 16.1442 18.139 15.9006 17.314 15.4367C16.489 14.9728 15.7959 14.304 15.3009 13.4942L13.9061 11.2734L12.893 9.66025C12.7017 9.32975 12.4559 9.03441 12.1661 8.78692C10.8287 7.53534 9.06898 6.84076 7.2422 6.84345C4.21346 6.84345 1.61921 8.71424 0.538774 11.37C0.522319 11.4105 0.505865 11.4514 0.490077 11.4926C0.484518 11.5069 0.478959 11.5216 0.473623 11.5373C0.458799 11.5749 0.44479 11.6125 0.431597 11.6502C0.425816 11.6672 0.419812 11.684 0.413808 11.7008C0.401356 11.7368 0.388682 11.773 0.376675 11.8095C0.370671 11.8274 0.364667 11.8455 0.358886 11.8636C0.347101 11.8992 0.33665 11.9347 0.325088 11.9703C0.319306 11.9891 0.313525 12.0078 0.307966 12.0266C0.297293 12.0622 0.287064 12.0978 0.277058 12.1338C0.271499 12.1528 0.266163 12.1716 0.260826 12.1908C0.25082 12.227 0.241481 12.2639 0.23192 12.3004C0.22725 12.3189 0.222358 12.3373 0.217911 12.3556C0.208127 12.395 0.198788 12.4346 0.189671 12.4739C0.185891 12.4898 0.182111 12.5057 0.178554 12.5216C0.166991 12.5737 0.156318 12.6258 0.145422 12.6781C0.145422 12.6815 0.143643 12.685 0.142976 12.6884C0.0483379 13.1617 0.000446309 13.6432 0 14.126L0 11.3445C0 5.78651 4.47985 1.28052 10.0061 1.28052C13.5194 1.28052 16.6102 3.10233 18.3959 5.85852C18.4438 5.93307 18.4907 6.00762 18.5367 6.08216C18.5387 6.08619 18.5409 6.09022 18.5431 6.09424C18.6026 6.20583 18.6746 6.3102 18.7577 6.40533C20.0749 8.21372 22.202 9.38785 24.6017 9.38785C26.0655 9.39069 27.4954 8.94519 28.7013 8.11062Z" fill="url(#paint7_linear_135_51608)"/>
<path d="M62.9587 8.052C62.4679 8.052 61.9972 8.24804 61.6501 8.59702C61.3031 8.946 61.108 9.41933 61.1078 9.91295V26.2166C61.1078 26.7104 61.3028 27.1839 61.6499 27.533C61.997 27.8821 62.4678 28.0783 62.9587 28.0783C63.4496 28.0783 63.9204 27.8821 64.2675 27.533C64.6146 27.1839 64.8096 26.7104 64.8096 26.2166V9.91295C64.8094 9.41933 64.6143 8.946 64.2673 8.59702C63.9202 8.24804 63.4495 8.052 62.9587 8.052Z" fill="#00A378"/>
<path d="M69.2005 13.6367C68.9574 13.6367 68.7167 13.6849 68.4921 13.7784C68.2676 13.872 68.0635 14.0091 67.8917 14.182C67.7198 14.3548 67.5835 14.5601 67.4904 14.7859C67.3974 15.0118 67.3495 15.2539 67.3495 15.4983V26.2165C67.3495 26.7102 67.5446 27.1837 67.8917 27.5329C68.2388 27.882 68.7096 28.0781 69.2005 28.0781C69.6914 28.0781 70.1621 27.882 70.5092 27.5329C70.8564 27.1837 71.0514 26.7102 71.0514 26.2165V15.4983C71.0514 15.2539 71.0035 15.0118 70.9105 14.7859C70.8175 14.5601 70.6811 14.3548 70.5092 14.182C70.3374 14.0091 70.1333 13.872 69.9088 13.7784C69.6842 13.6849 69.4435 13.6367 69.2005 13.6367Z" fill="#00A378"/>
<path d="M69.2005 11.7752C70.2227 11.7752 71.0514 10.9418 71.0514 9.91362C71.0514 8.88548 70.2227 8.052 69.2005 8.052C68.1782 8.052 67.3495 8.88548 67.3495 9.91362C67.3495 10.9418 68.1782 11.7752 69.2005 11.7752Z" fill="#00A378"/>
<path d="M54.2536 20.7878L58.3217 16.6951C58.6688 16.346 58.8638 15.8725 58.8638 15.3788C58.8638 14.885 58.6688 14.4115 58.3217 14.0624C57.9746 13.7133 57.5038 13.5171 57.0129 13.5171C56.522 13.5171 56.0512 13.7133 55.7041 14.0624L51.7252 18.0645C51.2282 18.4838 50.855 19.032 50.6461 19.6497V9.91289C50.6461 9.41915 50.4511 8.94564 50.104 8.59652C49.7569 8.2474 49.2861 8.05127 48.7952 8.05127C48.3043 8.05127 47.8335 8.2474 47.4864 8.59652C47.1393 8.94564 46.9443 9.41915 46.9443 9.91289V26.2166C46.9446 26.5084 47.013 26.796 47.144 27.0563C47.275 27.3167 47.465 27.5424 47.6987 27.7154C47.9323 27.8884 48.2031 28.0038 48.4892 28.0523C48.7752 28.1007 49.0686 28.081 49.3457 27.9945C49.3746 27.9856 49.4033 27.9757 49.4316 27.9652C49.5722 27.9136 49.706 27.8448 49.83 27.7604C49.8547 27.7436 49.879 27.7264 49.9027 27.7085C49.9501 27.6727 49.9959 27.6347 50.0397 27.5947C50.231 27.4204 50.3838 27.2077 50.4882 26.9703C50.5927 26.7329 50.6464 26.4761 50.6461 26.2166V21.9369C50.8644 22.5818 51.2615 23.1505 51.7906 23.5758L55.7263 27.5343C55.8982 27.7071 56.1022 27.8443 56.3268 27.9378C56.5514 28.0314 56.792 28.0795 57.0351 28.0795C57.2782 28.0795 57.5189 28.0314 57.7434 27.9378C57.968 27.8443 58.172 27.7071 58.3439 27.5343C58.691 27.1851 58.8859 26.7116 58.8859 26.2179C58.8859 25.7242 58.691 25.2507 58.3439 24.9015L54.2536 20.7878Z" fill="#00A378"/>
<path d="M84.99 24.9006L80.9006 20.7878L84.9686 16.6951C85.1405 16.5223 85.2769 16.317 85.3699 16.0912C85.4629 15.8653 85.5108 15.6232 85.5108 15.3788C85.5108 15.1343 85.4629 14.8922 85.3699 14.6663C85.2769 14.4405 85.1405 14.2353 84.9686 14.0624C84.7968 13.8895 84.5927 13.7524 84.3682 13.6588C84.1436 13.5653 83.9029 13.5171 83.6598 13.5171C83.4168 13.5171 83.1761 13.5653 82.9515 13.6588C82.727 13.7524 82.5229 13.8895 82.351 14.0624L78.3722 18.0645C77.8752 18.4838 77.502 19.0321 77.2931 19.6497V9.91289C77.2931 9.41915 77.0981 8.94564 76.7509 8.59652C76.4038 8.2474 75.933 8.05127 75.4422 8.05127C74.9513 8.05127 74.4805 8.2474 74.1334 8.59652C73.7863 8.94564 73.5912 9.41915 73.5912 9.91289V26.2166C73.5915 26.5084 73.6599 26.796 73.791 27.0563C73.922 27.3167 74.112 27.5424 74.3456 27.7154C74.5793 27.8884 74.85 28.0038 75.1361 28.0523C75.4222 28.1007 75.7156 28.081 75.9927 27.9945C76.0216 27.9856 76.0503 27.9757 76.0785 27.9652C76.2192 27.9136 76.353 27.8448 76.477 27.7604C76.5017 27.7436 76.5259 27.7264 76.5497 27.7085C76.5971 27.6727 76.6429 27.6347 76.6867 27.5947C76.878 27.4204 77.0307 27.2077 77.1352 26.9703C77.2396 26.7329 77.2934 26.4761 77.2931 26.2166V21.9369C77.5113 22.5818 77.9084 23.1505 78.4375 23.5758L82.3733 27.5343C82.5452 27.7071 82.7492 27.8443 82.9738 27.9378C83.1983 28.0314 83.439 28.0795 83.6821 28.0795C83.9251 28.0795 84.1658 28.0314 84.3904 27.9378C84.615 27.8443 84.819 27.7071 84.9909 27.5343C85.1628 27.3613 85.2992 27.156 85.3922 26.93C85.4853 26.704 85.5331 26.4618 85.533 26.2173C85.5329 25.9727 85.4849 25.7305 85.3918 25.5046C85.2986 25.2787 85.1621 25.0735 84.99 24.9006Z" fill="#00A378"/>
<path d="M98.8458 8.052C98.355 8.052 97.8843 8.24804 97.5372 8.59702C97.1901 8.946 96.9951 9.41933 96.9949 9.91295V14.4375C95.9134 13.8264 94.6936 13.5063 93.4532 13.508C89.4527 13.508 86.2098 16.7699 86.2098 20.7935C86.2098 24.8171 89.4527 28.0787 93.4532 28.0787C94.768 28.0808 96.0584 27.7211 97.1845 27.0385C97.3691 27.4158 97.6751 27.7191 98.0529 27.8992C98.4307 28.0792 98.8579 28.1253 99.2651 28.0301C99.6722 27.9348 100.035 27.7037 100.295 27.3744C100.555 27.0452 100.697 26.6371 100.697 26.2166V9.91295C100.697 9.41933 100.501 8.946 100.154 8.59702C99.8072 8.24804 99.3366 8.052 98.8458 8.052ZM96.9949 20.7982C96.9936 21.7425 96.6196 22.6477 95.9551 23.3148C95.2905 23.9819 94.3897 24.3563 93.4508 24.3557C92.5119 24.3551 91.6117 23.9795 90.948 23.3115C90.2843 22.6435 89.9114 21.7378 89.9114 20.7935C89.9114 19.8491 90.2843 18.9434 90.948 18.2754C91.6117 17.6075 92.5119 17.2319 93.4508 17.2313C94.3897 17.2306 95.2905 17.605 95.9551 18.2721C96.6196 18.9392 96.9936 19.8444 96.9949 20.7888V20.7982Z" fill="#0074BD"/>
<path d="M109.845 13.5081C105.844 13.5081 102.602 16.7699 102.602 20.7935C102.602 24.8171 105.844 28.0787 109.845 28.0787C113.845 28.0787 117.088 24.8171 117.088 20.7935C117.088 16.7699 113.845 13.5081 109.845 13.5081ZM109.845 24.3548C109.144 24.3548 108.46 24.1459 107.877 23.7545C107.295 23.3631 106.841 22.8067 106.573 22.1558C106.305 21.5049 106.235 20.7887 106.371 20.0977C106.508 19.4066 106.845 18.7719 107.34 18.2737C107.836 17.7756 108.467 17.4363 109.154 17.2988C109.841 17.1614 110.553 17.2319 111.2 17.5016C111.847 17.7712 112.401 18.2277 112.79 18.8135C113.179 19.3993 113.387 20.0881 113.387 20.7926C113.387 21.2605 113.295 21.7238 113.117 22.1561C112.939 22.5884 112.678 22.9812 112.35 23.312C112.021 23.6429 111.63 23.9054 111.2 24.0845C110.771 24.2635 110.31 24.3557 109.845 24.3557V24.3548Z" fill="#0074BD"/>
<path d="M140.117 13.508H136.546V9.91289C136.546 9.41915 136.351 8.94565 136.004 8.59652C135.657 8.2474 135.186 8.05127 134.695 8.05127C134.204 8.05127 133.733 8.2474 133.386 8.59652C133.039 8.94565 132.844 9.41915 132.844 9.91289V15.3698V20.7986C132.847 24.8197 136.089 28.0786 140.087 28.0786H140.107C141.138 28.0759 141.968 27.2257 141.968 26.1891C141.968 25.1661 141.136 24.3469 140.118 24.3552H140.087C139.149 24.3551 138.249 23.9807 137.585 23.314C136.921 22.6473 136.547 21.7429 136.546 20.7992V17.2312H140.117C140.36 17.2312 140.601 17.1831 140.825 17.0896C141.05 16.9961 141.254 16.859 141.426 16.6861C141.598 16.5133 141.734 16.3081 141.827 16.0822C141.92 15.8564 141.968 15.6143 141.968 15.3698C141.968 15.1253 141.92 14.8832 141.827 14.6573C141.734 14.4314 141.598 14.2262 141.426 14.0533C141.254 13.8804 141.05 13.7433 140.826 13.6497C140.601 13.5561 140.36 13.508 140.117 13.508Z" fill="#0074BD"/>
<path d="M166.149 13.5186V13.5081C164.834 13.5061 163.544 13.8658 162.418 14.5482C162.233 14.171 161.927 13.8677 161.549 13.6876C161.172 13.5076 160.744 13.4614 160.337 13.5567C159.93 13.6519 159.567 13.883 159.307 14.2122C159.047 14.5414 158.906 14.9495 158.905 15.3699V26.2167C158.905 26.7104 159.1 27.1839 159.448 27.533C159.795 27.8821 160.266 28.0783 160.756 28.0783C161.247 28.0783 161.718 27.8821 162.065 27.533C162.412 27.1839 162.607 26.7104 162.607 26.2167V20.7888C162.609 19.8712 162.962 18.9895 163.594 18.3274C164.225 17.6654 165.087 17.2741 165.998 17.2351C166.048 17.2391 166.098 17.2418 166.149 17.2418C166.64 17.2418 167.111 17.0457 167.458 16.6966C167.805 16.3474 168 15.8739 168 15.3802C168 14.8865 167.805 14.413 167.458 14.0638C167.111 13.7147 166.64 13.5186 166.149 13.5186Z" fill="#0074BD"/>
<path d="M156.446 17.1646C155.196 14.9796 152.851 13.5081 150.164 13.5081C146.163 13.5081 142.921 16.7701 142.921 20.7937C142.921 24.8173 146.163 28.0787 150.164 28.0787C151.215 28.0796 152.253 27.85 153.207 27.4058C154.161 26.9616 155.007 26.3136 155.686 25.5068C155.708 25.4827 155.729 25.4578 155.749 25.4323C156.053 25.0524 156.197 24.5673 156.15 24.0817C156.102 23.596 155.867 23.1487 155.494 22.8359C155.122 22.5231 154.642 22.37 154.158 22.4095C153.675 22.4489 153.226 22.6779 152.909 23.0469H152.907C152.381 23.6945 151.646 24.1355 150.83 24.2927C150.013 24.4498 149.168 24.3132 148.441 23.9066L155.711 19.7502C156.61 19.236 156.957 18.0682 156.446 17.1646ZM156.436 17.1707L156.413 17.1837L156.436 17.1707ZM146.627 20.6148C146.657 20.0166 146.836 19.4356 147.149 18.9256C147.461 18.4156 147.896 17.993 148.414 17.697C148.932 17.401 149.515 17.241 150.111 17.2319C150.706 17.2228 151.295 17.3649 151.821 17.645L146.627 20.6148Z" fill="#0074BD"/>
<path d="M126.303 20.7878L130.371 16.6951C130.718 16.346 130.913 15.8725 130.913 15.3788C130.913 14.885 130.718 14.4115 130.371 14.0624C130.023 13.7133 129.553 13.5171 129.062 13.5171C128.571 13.5171 128.1 13.7133 127.753 14.0624L123.774 18.0645C123.277 18.4838 122.904 19.032 122.695 19.6497V9.91289C122.695 9.66842 122.647 9.42634 122.554 9.20048C122.461 8.97461 122.325 8.76939 122.153 8.59652C121.981 8.42366 121.777 8.28653 121.553 8.19298C121.328 8.09942 121.087 8.05127 120.844 8.05127C120.601 8.05127 120.361 8.09942 120.136 8.19298C119.911 8.28653 119.707 8.42366 119.535 8.59652C119.364 8.76939 119.227 8.97461 119.134 9.20048C119.041 9.42634 118.993 9.66842 118.993 9.91289V26.2166C118.994 26.5084 119.062 26.7961 119.193 27.0564C119.324 27.3168 119.514 27.5426 119.748 27.7156C119.981 27.8885 120.252 28.0039 120.538 28.0524C120.824 28.1008 121.118 28.081 121.395 27.9945C121.424 27.9856 121.452 27.9758 121.481 27.9653C121.621 27.9135 121.755 27.8447 121.879 27.7604C121.904 27.7436 121.928 27.7264 121.952 27.7085C121.999 27.6727 122.045 27.6347 122.089 27.5947C122.28 27.4204 122.433 27.2077 122.538 26.9703C122.642 26.7329 122.696 26.4762 122.695 26.2166V21.9369C122.914 22.5819 123.311 23.1506 123.84 23.5758L127.775 27.5343C127.946 27.7072 128.15 27.8443 128.375 27.9378C128.6 28.0314 128.84 28.0796 129.083 28.0796C129.326 28.0796 129.567 28.0314 129.792 27.9378C130.016 27.8443 130.22 27.7072 130.392 27.5343C130.564 27.3614 130.7 27.1562 130.793 26.9303C130.886 26.7045 130.934 26.4624 130.934 26.2179C130.934 25.9734 130.886 25.7314 130.793 25.5055C130.7 25.2796 130.564 25.0744 130.392 24.9015L126.303 20.7878Z" fill="#0074BD"/>
<defs>
<linearGradient id="paint0_linear_135_51608" x1="20.0122" y1="34.8272" x2="20.0122" y2="7.59914" gradientUnits="userSpaceOnUse">
<stop offset="0.15" stop-color="#37B2FF"/>
<stop offset="1" stop-color="#0074BD"/>
</linearGradient>
<linearGradient id="paint1_linear_135_51608" x1="33.0288" y1="20.3214" x2="10.7931" y2="36.6788" gradientUnits="userSpaceOnUse">
<stop stop-color="#96E6A1"/>
<stop offset="1" stop-color="#00A378"/>
</linearGradient>
<linearGradient id="paint2_linear_135_51608" x1="19.9273" y1="8.71245" x2="47.4819" y2="8.71245" gradientUnits="userSpaceOnUse">
<stop stop-color="#96E6A1"/>
<stop offset="1" stop-color="#00A378"/>
</linearGradient>
<linearGradient id="paint3_linear_135_51608" x1="5.04975" y1="9.42207" x2="38.3149" y2="7.0597" gradientUnits="userSpaceOnUse">
<stop stop-color="#96E6A1"/>
<stop offset="1" stop-color="#00A378"/>
</linearGradient>
<linearGradient id="paint4_linear_135_51608" x1="20.0122" y1="34.8272" x2="20.0122" y2="7.59914" gradientUnits="userSpaceOnUse">
<stop offset="0.15" stop-color="#37B2FF"/>
<stop offset="1" stop-color="#0074BD"/>
</linearGradient>
<linearGradient id="paint5_linear_135_51608" x1="33.0288" y1="20.3214" x2="10.7931" y2="36.6788" gradientUnits="userSpaceOnUse">
<stop stop-color="#96E6A1"/>
<stop offset="1" stop-color="#00A378"/>
</linearGradient>
<linearGradient id="paint6_linear_135_51608" x1="19.9273" y1="8.71245" x2="47.4819" y2="8.71245" gradientUnits="userSpaceOnUse">
<stop stop-color="#96E6A1"/>
<stop offset="1" stop-color="#00A378"/>
</linearGradient>
<linearGradient id="paint7_linear_135_51608" x1="5.04975" y1="9.42207" x2="38.3149" y2="7.0597" gradientUnits="userSpaceOnUse">
<stop stop-color="#96E6A1"/>
<stop offset="1" stop-color="#00A378"/>
</linearGradient>
</defs>
</svg>
